<svg width="44" height="44" viewBox="0 0 44 44" fill="none" xmlns="http://www.w3.org/2000/svg">
<path d="M22 0C34.1 0 44 9.9 44 22C44 34.1 34.1 44 22 44C9.89999 44 -7.62939e-06 34.1 -7.62939e-06 22C-7.62939e-06 9.9 9.89999 0 22 0ZM22 40.8572C32.3714 40.8572 40.8571 32.3714 40.8571 22C40.8571 11.6286 32.3714 3.14286 22 3.14286C11.6286 3.14286 3.14285 11.6286 3.14285 22C3.14285 32.3714 11.6286 40.8572 22 40.8572Z" fill="#1B3B84"/>
<path d="M11.1571 21.3715C11.3143 21.2143 11.3143 21.0572 11.4714 20.9L17.7571 14.6143C18.3857 13.9857 19.3286 13.9857 19.9571 14.6143C20.5857 15.2429 20.5857 16.1857 19.9571 16.8143L16.3428 20.4286H33C33.9428 20.4286 34.5714 21.0572 34.5714 22C34.5714 22.9429 33.9428 23.5715 33 23.5715H16.3428L19.9571 27.1857C20.5857 27.8143 20.5857 28.7572 19.9571 29.3857C19.6428 29.7 19.1714 29.8572 18.8571 29.8572C18.5428 29.8572 18.0714 29.7 17.7571 29.3857L11.4714 23.1C11.3143 22.9429 11.1571 22.7857 11.1571 22.6286C11 22.1572 11 21.8429 11.1571 21.3715Z" fill="#1B3B84"/>
</svg>
