<svg width="28" height="21" viewBox="0 0 28 21" fill="none" xmlns="http://www.w3.org/2000/svg">
<path d="M27.3808 9.05788L18.745 0.585584C17.9492 -0.195191 16.6229 -0.195191 15.8271 0.585584C15.0313 1.36636 15.0313 2.66751 15.8271 3.44828L20.9262 8.47951L2.0631 8.47951C0.913631 8.47951 -8.91133e-07 9.37584 -9.8972e-07 10.5036C-1.08831e-06 11.6313 0.91363 12.5276 2.0631 12.5276L20.9262 12.5276L15.8273 17.53C15.0315 18.3107 15.0315 19.6119 15.8273 20.3927C16.2399 20.7975 16.7706 21 17.301 21C17.8314 21 18.362 20.7975 18.7747 20.3927L27.381 11.9493C27.7642 11.5733 28 11.053 28 10.5035C28 9.95406 27.7936 9.43368 27.381 9.05772L27.3808 9.05788Z" fill="white"/>
</svg>
